<svg version="1.1" xmlns="http://www.w3.org/2000/svg" viewBox="0 0 818.381059934915 122.67750835805919">
  <!-- svg-source:excalidraw -->
  <g stroke-linecap="round"><g transform="translate(64.08387649307645 22.024771743916517) rotate(7.5651430919386335 -26.456761402336838 32.772615274117584)"><path d="M1.17 0.22 C-7.79 5.59, -53.17 22.2, -53.49 33.21 C-53.82 44.22, -9.71 60.72, -0.81 66.25 M0.32 -0.71 C-8.76 4.7, -53.79 23.39, -54.08 34.25 C-54.37 45.11, -10.53 59.42, -1.4 64.45" stroke="currentcolor" stroke-width="2" fill="none"></path></g></g><g stroke-linecap="round"><g transform="translate(138.92837562695297 30.628041987395818) rotate(0.6931960841559238 13.086003177721636 34.040012247575646)"><path d="M-0.52 0.77 C6.43 8.44, 43.96 34.96, 41.56 46.16 C39.16 57.36, -5.31 64.29, -14.9 67.96 M1.4 0.12 C8.25 7.47, 43.69 33.54, 40.87 44.53 C38.05 55.51, -6 62.42, -15.5 66.02" stroke="currentcolor" stroke-width="2" fill="none"></path></g></g><g stroke-linecap="round"><g transform="translate(230.46407302815487 15.434392004786787) rotate(0 -0.6016831374996627 39.41573542238103)"><path d="M0.33 0.27 C0.3 13.34, -0.32 65.18, -0.28 78.54 M-0.95 -0.64 C-1.19 12.53, -1.66 66.29, -1.5 79.47" stroke="currentcolor" stroke-width="4" fill="none"></path></g></g><g stroke-linecap="round"><g transform="translate(250.37839620278976 35.262861973226336) rotate(0 0.03923501023842846 29.71820258932837)"><path d="M-0.98 0.5 C-0.79 10.54, 0.72 49.83, 1.06 59.72 M0.7 -0.28 C0.74 9.44, 0.17 48.15, 0.1 57.83" stroke="currentcolor" stroke-width="4" fill="none"></path></g></g><g transform="translate(250.48810656982312 21.89976356026864) rotate(0 0.00004395106628862777 0.00004395106623178435)" stroke="none"><path fill="currentcolor" d="M 3.14,-3.14 Q 3.14,-3.14 3.55,-2.55 3.97,-1.97 4.18,-1.28 4.40,-0.59 4.38,0.11 4.36,0.83 4.11,1.51 3.86,2.18 3.41,2.74 2.96,3.30 2.36,3.69 1.75,4.08 1.05,4.25 0.36,4.42 -0.35,4.36 -1.07,4.30 -1.73,4.02 -2.39,3.74 -2.92,3.26 -3.46,2.78 -3.81,2.15 -4.16,1.53 -4.30,0.82 -4.43,0.11 -4.34,-0.59 -4.24,-1.30 -3.92,-1.94 -3.60,-2.59 -3.09,-3.09 -2.59,-3.60 -1.94,-3.92 -1.30,-4.24 -0.59,-4.34 0.12,-4.43 0.82,-4.30 1.53,-4.16 2.15,-3.81 2.78,-3.46 3.26,-2.92 3.74,-2.39 4.02,-1.73 4.31,-1.07 4.36,-0.35 4.42,0.36 4.25,1.05 4.07,1.75 3.69,2.36 3.30,2.96 2.74,3.41 2.18,3.86 1.51,4.11 0.83,4.36 0.11,4.38 -0.60,4.40 -1.28,4.18 -1.97,3.97 -2.55,3.55 -3.14,3.13 -3.14,3.14 -3.14,3.14 -3.47,2.71 -3.80,2.29 -4.02,1.80 -4.24,1.32 -4.33,0.79 -4.43,0.26 -4.40,-0.26 -4.36,-0.80 -4.20,-1.31 -4.04,-1.82 -3.77,-2.28 -3.49,-2.73 -3.11,-3.11 -2.73,-3.49 -2.28,-3.77 -1.82,-4.05 -1.31,-4.20 -0.80,-4.36 -0.26,-4.40 0.26,-4.43 0.79,-4.33 1.32,-4.24 1.80,-4.02 2.29,-3.80 2.71,-3.47 3.14,-3.14 3.14,-3.14 L 3.14,-3.14 Z"></path></g><g stroke-linecap="round"><g transform="translate(270.8526205609061 35.86046883548397) rotate(0 17.077902486248945 29.002737689530022)"><path d="M1.06 -0.16 C1.05 9.39, -1.65 56.56, 1.05 57.64 C3.74 58.73, 11.67 6.47, 17.23 6.36 C22.79 6.25, 31.88 48.42, 34.4 56.98 M0.15 -1.28 C-0.06 8.46, -2.4 58.35, 0.36 59.28 C3.11 60.21, 10.9 4.45, 16.69 4.28 C22.49 4.11, 32.25 49.82, 35.13 58.27" stroke="currentcolor" stroke-width="4" fill="none"></path></g></g><g stroke-linecap="round"><g transform="translate(331.76078984502897 27.310889299310475) rotate(0 0.029219903472949227 33.3771712322158)"><path d="M0.58 0.08 C0.41 11.23, -0.99 56.47, -1.08 67.67 M-0.58 -0.92 C-0.38 9.79, 1.14 54.2, 1.14 65.8" stroke="currentcolor" stroke-width="4" fill="none"></path></g></g><g stroke-linecap="round"><g transform="translate(333.5804686913433 57.94838076787664) rotate(0 10.768705252433904 -8.347455721879555)"><path d="M0.03 -0.1 C3.87 -3.03, 19.01 -13.84, 22.96 -16.6 M-1.42 -1.19 C2.27 -3.46, 17.89 -12.96, 22.01 -15.37" stroke="currentcolor" stroke-width="4" fill="none"></path></g></g><g stroke-linecap="round"><g transform="translate(333.14919345541887 58.64447413112339) rotate(0 12.22530823305675 17.6003635844462)"><path d="M-0.9 -1.07 C1.55 1.65, 10.95 10.14, 15.33 16.22 C19.7 22.31, 23.84 32.07, 25.35 35.44 M0.83 0.98 C3.16 3.41, 11 8.83, 14.94 14.72 C18.89 20.6, 23 32.46, 24.51 36.27" stroke="currentcolor" stroke-width="4" fill="none"></path></g></g><g stroke-linecap="round"><g transform="translate(378.3309490927028 66.77351635297282) rotate(0 17.439356124542655 0.585561991198233)"><path d="M1.16 1.14 C6.63 1.29, 26.79 1.37, 32.28 1.55 M0.31 0.7 C6.21 0.41, 28.97 -0.33, 34.57 -0.37" stroke="currentcolor" stroke-width="4" fill="none"></path></g></g><g stroke-linecap="round"><g transform="translate(443.2643539121244 28.52708682237153) rotate(0 8.401934324575961 30.63926321000997)"><path d="M-1.12 0.14 C-1.36 9.15, -6.29 42.83, -2.64 53.16 C1.01 63.49, 16.82 60.52, 20.78 62.12 M0.5 -0.84 C0.76 8.41, -3.54 44.28, -0.26 54.41 C3.01 64.54, 16.48 58.91, 20.13 59.95" stroke="currentcolor" stroke-width="4" fill="none"></path></g></g><g stroke-linecap="round"><g transform="translate(425.33994980851105 47.34430632667181) rotate(0 19.476586839719857 -1.8870210853407343)"><path d="M0.71 -0.79 C7.14 -1.71, 32.87 -4.41, 39.34 -5.19 M-0.38 1.41 C5.89 0.68, 32.18 -2.67, 38.77 -3.62" stroke="currentcolor" stroke-width="4" fill="none"></path></g></g><g stroke-linecap="round"><g transform="translate(490.22615474351585 48.873126485979355) rotate(0 6.4975793675699265 19.679831703669947)"><path d="M0.91 -0.52 C-1.67 3.04, -14.78 13.67, -14.27 20.55 C-13.76 27.42, -3.03 40.52, 3.98 40.72 C10.99 40.92, 26.42 28.64, 27.79 21.76 C29.16 14.89, 17 3.27, 12.21 -0.55 C7.42 -4.37, 0.91 -1.27, -0.95 -1.13 M-0.08 1.83 C-2.85 5.59, -15.9 15.04, -14.84 21.7 C-13.77 28.36, -0.74 41.6, 6.32 41.8 C13.38 42.01, 26.77 29.93, 27.53 22.93 C28.3 15.94, 15.48 3.49, 10.89 -0.18 C6.29 -3.85, 2.01 1.02, -0.04 0.89" stroke="currentcolor" stroke-width="4" fill="none"></path></g></g><g stroke-linecap="round"><g transform="translate(537.675335316511 70.74578826280685) rotate(0 19.402038697274747 0.43509720018141707)"><path d="M-1.17 -0.69 C5.18 -0.56, 31.33 1.2, 37.84 1.3 M0.41 1.56 C7.15 1.32, 33.34 -0.26, 39.98 -0.35" stroke="currentcolor" stroke-width="4" fill="none"></path></g></g><g stroke-linecap="round"><g transform="translate(629.6075013854376 63.19222459290404) rotate(0 -16.767862503354422 7.183166057608901)"><path d="M-0.99 -0.82 C-1.43 -2.41, 0.25 -6.13, -2.99 -8.46 C-6.23 -10.79, -15.12 -17.24, -20.42 -14.8 C-25.71 -12.37, -33.95 -1.01, -34.74 6.18 C-35.54 13.37, -31 24.8, -25.2 28.33 C-19.4 31.85, -4.03 27.58, 0.06 27.31 M0.7 1.36 C0.65 -0.05, 2.81 -7.64, -0.78 -10.2 C-4.37 -12.75, -15.22 -16.86, -20.82 -13.96 C-26.41 -11.07, -33.92 0.12, -34.36 7.2 C-34.8 14.27, -28.85 25.36, -23.44 28.5 C-18.03 31.64, -5.79 26.06, -1.88 26.05" stroke="currentcolor" stroke-width="4" fill="none"></path></g></g><g stroke-linecap="round"><g transform="translate(660.882142040214 51.49252115970103) rotate(0 7.085780136303242 19.323836933320194)"><path d="M-1.04 -0.16 C-3.3 3.6, -15.43 14.63, -14.58 21.41 C-13.74 28.19, -3.23 40.32, 4.04 40.52 C11.32 40.72, 27.58 29.57, 29.07 22.62 C30.56 15.68, 17.81 2.78, 13.01 -1.14 C8.2 -5.07, 2.5 -1.03, 0.26 -0.93 M0.62 -1.29 C-1.67 2.79, -16.28 15.89, -15.32 23.02 C-14.35 30.15, -1.06 41.9, 6.41 41.49 C13.88 41.09, 28.54 27.68, 29.49 20.59 C30.44 13.49, 16.72 2.15, 12.1 -1.08 C7.49 -4.31, 3.83 0.77, 1.81 1.2" stroke="currentcolor" stroke-width="4" fill="none"></path></g></g><g stroke-linecap="round"><g transform="translate(744.0618960141245 89.37400065016936) rotate(0 -19.753916180672718 -34.19437437390752)"><path d="M-0.88 0.84 C-2.12 -10.82, -8.23 -63.37, -8.23 -69.43 C-8.22 -75.49, 0.82 -47.66, -0.85 -35.51 C-2.51 -23.37, -11.85 0.85, -18.21 3.44 C-24.58 6.03, -38.21 -13.59, -39.04 -19.97 C-39.87 -26.34, -27.62 -33.14, -23.21 -34.81 C-18.8 -36.48, -14.17 -30.6, -12.56 -30.01 M0.86 0.24 C-0.45 -11.83, -8.77 -65.48, -9.09 -71.32 C-9.41 -77.16, 0.52 -46.91, -1.05 -34.81 C-2.62 -22.71, -11.98 -1.22, -18.53 1.29 C-25.08 3.8, -39.81 -13.62, -40.35 -19.76 C-40.89 -25.91, -26.49 -33.74, -21.76 -35.6 C-17.03 -37.45, -13.69 -31.53, -11.97 -30.89" stroke="currentcolor" stroke-width="4" fill="none"></path></g></g><g stroke-linecap="round"><g transform="translate(774.0691088537341 62.325446100903264) rotate(0 8.770600820457958 7.245698081692922)"><path d="M0.53 0.9 C2.7 2.05, 9.22 7.64, 12.89 6.54 C16.56 5.45, 23.39 -2.27, 22.55 -5.67 C21.71 -9.07, 13.36 -14.95, 7.84 -13.88 C2.32 -12.81, -7.9 -5.14, -10.55 0.74 C-13.21 6.62, -10.82 16.42, -8.11 21.41 C-5.4 26.4, -0.5 30.84, 5.72 30.68 C11.95 30.52, 25.14 22.16, 29.25 20.45 M-0.65 0.32 C1.46 1.64, 8.74 8.43, 12.45 7.65 C16.16 6.86, 22.85 -0.43, 21.61 -4.39 C20.37 -8.35, 10.09 -17.09, 5.03 -16.11 C-0.03 -15.14, -6.21 -4.66, -8.74 1.48 C-11.27 7.61, -12.61 16.03, -10.17 20.71 C-7.72 25.39, -0.44 29.6, 5.94 29.55 C12.31 29.5, 24.2 22.11, 28.07 20.41" stroke="currentcolor" stroke-width="4" fill="none"></path></g></g><g stroke-linecap="round"><g transform="translate(91.03579596693055 98.33942580610415) rotate(0 49.13501562188674 -44.37845532175106)"><path d="M0.54 -0.42 C6.26 -13.72, 17.85 -66.96, 34.25 -80.77 C50.64 -94.59, 88.13 -82.8, 98.91 -83.3 M-0.64 -1.68 C4.96 -15.25, 16.95 -69.21, 33.5 -82.58 C50.05 -95.95, 87.62 -81.85, 98.65 -81.89" stroke="currentcolor" stroke-width="2" fill="none"></path></g><g transform="translate(91.03579596693055 98.33942580610415) rotate(0 49.13501562188674 -44.37845532175106)"><path d="M68.46 -75.8 C78.84 -76.55, 86.77 -78.12, 98.17 -83.27 M69.79 -77.39 C79.86 -78.89, 90.28 -79.62, 99.27 -82.29" stroke="currentcolor" stroke-width="2" fill="none"></path></g><g transform="translate(91.03579596693055 98.33942580610415) rotate(0 49.13501562188674 -44.37845532175106)"><path d="M71.86 -96.03 C81.09 -90.85, 88.02 -86.49, 98.17 -83.27 M73.2 -97.63 C82.2 -92.17, 91.45 -85.93, 99.27 -82.29" stroke="currentcolor" stroke-width="2" fill="none"></path></g></g><g stroke-linecap="round"><g transform="translate(219.9771028829333 109.33989244419877) rotate(0 293.61303982800456 1.9696729764621068)"><path d="M-1.18 1.08 C97 1.57, 490.17 3.15, 588.4 3.34 M0.4 0.6 C98.56 0.67, 490.01 0.94, 587.9 1.34" stroke="currentcolor" stroke-width="2" fill="none"></path></g></g>
</svg>