<svg viewBox="0 0 593 95" fill="none" xmlns="http://www.w3.org/2000/svg">
<path d="M31.5 83.0625V92.1562H30.1406C27.1719 92.1562 24.4688 91.7344 22.0312 90.8906C19.5938 90.0469 17.5 88.8281 15.75 87.2344C14.0312 85.6406 12.7031 83.6875 11.7656 81.375C10.8281 79.0938 10.3594 76.4844 10.3594 73.5469C10.3594 72.4531 10.4062 71.2656 10.5 69.9844C10.625 68.7031 10.7344 67.4375 10.8281 66.1875C10.9531 64.9062 11.0625 63.7031 11.1562 62.5781C11.2812 61.4219 11.3438 60.4375 11.3438 59.625C11.3438 57.8438 11.1719 56.375 10.8281 55.2188C10.4844 54.0625 9.95312 53.1562 9.23438 52.5C8.51562 51.8125 7.57812 51.3438 6.42188 51.0938C5.26562 50.8125 3.89062 50.6719 2.29688 50.6719H1.92188V41.4844H2.29688C3.89062 41.4844 5.26562 41.3594 6.42188 41.1094C7.57812 40.8281 8.51562 40.3594 9.23438 39.7031C9.95312 39.0156 10.4844 38.0938 10.8281 36.9375C11.1719 35.7812 11.3438 34.3125 11.3438 32.5312C11.3438 31.7188 11.2812 30.75 11.1562 29.625C11.0625 28.5 10.9531 27.3125 10.8281 26.0625C10.7344 24.7812 10.625 23.5 10.5 22.2188C10.4062 20.9375 10.3594 19.7344 10.3594 18.6094C10.3594 15.6719 10.8281 13.0625 11.7656 10.7812C12.7031 8.46875 14.0312 6.51562 15.75 4.92188C17.5 3.32812 19.5938 2.10938 22.0312 1.26562C24.4688 0.421875 27.1719 0 30.1406 0H31.5V9.14062H30.1406C26.8594 9.14062 24.3438 9.95312 22.5938 11.5781C20.8438 13.1719 19.9688 15.5781 19.9688 18.7969C19.9688 19.7656 20.0156 20.8125 20.1094 21.9375C20.2031 23.0625 20.3125 24.2188 20.4375 25.4062C20.5625 26.5625 20.6719 27.7188 20.7656 28.875C20.8594 30.0312 20.9062 31.125 20.9062 32.1562C20.9062 35.4688 20.4062 38.2969 19.4062 40.6406C18.4062 42.9531 16.7656 44.7656 14.4844 46.0781C16.7656 47.4219 18.4062 49.2656 19.4062 51.6094C20.4062 53.9219 20.9062 56.7188 20.9062 60C20.9062 61.0312 20.8594 62.125 20.7656 63.2812C20.6719 64.4375 20.5625 65.6094 20.4375 66.7969C20.3125 67.9531 20.2031 69.0938 20.1094 70.2188C20.0156 71.3438 19.9688 72.3906 19.9688 73.3594C19.9688 76.5781 20.8438 79 22.5938 80.625C24.3438 82.25 26.8594 83.0625 30.1406 83.0625H31.5Z" fill="#BD00FF"/>
<path d="M73.2188 83.0625C76.5 83.0625 79.0156 82.25 80.7656 80.625C82.5156 79 83.3906 76.5781 83.3906 73.3594C83.3906 72.3906 83.3281 71.3438 83.2031 70.2188C83.1094 69.0938 83 67.9531 82.875 66.7969C82.7812 65.6094 82.6719 64.4375 82.5469 63.2812C82.4531 62.125 82.4062 61.0312 82.4062 60C82.4062 56.7188 82.9062 53.9219 83.9062 51.6094C84.9375 49.2656 86.5781 47.4219 88.8281 46.0781C86.5781 44.7656 84.9375 42.9531 83.9062 40.6406C82.9062 38.2969 82.4062 35.4688 82.4062 32.1562C82.4062 31.125 82.4531 30.0312 82.5469 28.875C82.6719 27.7188 82.7812 26.5625 82.875 25.4062C83 24.2188 83.1094 23.0625 83.2031 21.9375C83.3281 20.8125 83.3906 19.7656 83.3906 18.7969C83.3906 15.5781 82.5156 13.1719 80.7656 11.5781C79.0156 9.95312 76.5 9.14062 73.2188 9.14062H71.8594V0H73.2188C76.1875 0 78.8906 0.421875 81.3281 1.26562C83.7656 2.10938 85.8438 3.32812 87.5625 4.92188C89.2812 6.51562 90.6094 8.46875 91.5469 10.7812C92.4844 13.0625 92.9531 15.6719 92.9531 18.6094C92.9531 19.7344 92.9062 20.9375 92.8125 22.2188C92.7188 23.5 92.6094 24.7812 92.4844 26.0625C92.3594 27.3125 92.25 28.5 92.1562 29.625C92.0625 30.75 92.0156 31.7188 92.0156 32.5312C92.0156 34.3125 92.1719 35.7812 92.4844 36.9375C92.8281 38.0938 93.3594 39.0156 94.0781 39.7031C94.8281 40.3594 95.7656 40.8281 96.8906 41.1094C98.0469 41.3594 99.4219 41.4844 101.016 41.4844H101.438V50.6719H101.016C99.4219 50.6719 98.0469 50.8125 96.8906 51.0938C95.7656 51.3438 94.8281 51.8125 94.0781 52.5C93.3594 53.1562 92.8281 54.0625 92.4844 55.2188C92.1719 56.375 92.0156 57.8438 92.0156 59.625C92.0156 60.4375 92.0625 61.4219 92.1562 62.5781C92.25 63.7031 92.3594 64.9062 92.4844 66.1875C92.6094 67.4375 92.7188 68.7031 92.8125 69.9844C92.9062 71.2656 92.9531 72.4531 92.9531 73.5469C92.9531 76.4844 92.4844 79.0938 91.5469 81.375C90.6094 83.6875 89.2812 85.6406 87.5625 87.2344C85.8438 88.8281 83.7656 90.0469 81.3281 90.8906C78.8906 91.7344 76.1875 92.1562 73.2188 92.1562H71.8594V83.0625H73.2188Z" fill="#13D5D2"/>
<path d="M147.383 15.9844V63.9922H176.172V72H139.375V15.9844H147.383ZM193.086 30.3984V72H185.391V30.3984H193.086ZM185 14.3828H193.477V22.3906H185V14.3828ZM243.125 72H235.43V38.0938H213.984V72H206.328V30.3984H213.984V37.7422C214.036 36.7266 214.271 35.776 214.688 34.8906C215.104 33.9792 215.651 33.1979 216.328 32.5469C217.031 31.8698 217.839 31.349 218.75 30.9844C219.661 30.5938 220.638 30.3984 221.68 30.3984H235.43C236.497 30.3984 237.5 30.6068 238.438 31.0234C239.375 31.4141 240.182 31.9609 240.859 32.6641C241.562 33.3411 242.109 34.1484 242.5 35.0859C242.917 36.0234 243.125 37.026 243.125 38.0938V72ZM283.438 72L263.594 54.2266V72H255.938V14.3828H263.594V46.8047L281.836 30.3984H292.656L270.312 50.4766L294.258 72H283.438ZM295.82 15.9844H340.625V23.9922H322.227V72H314.219V23.9922H295.82V15.9844ZM380.586 64.3047C380.586 65.3724 380.378 66.375 379.961 67.3125C379.57 68.25 379.023 69.0703 378.32 69.7734C377.643 70.4505 376.836 70.9974 375.898 71.4141C374.987 71.8047 373.997 72 372.93 72H352.266C351.224 72 350.234 71.8047 349.297 71.4141C348.359 70.9974 347.539 70.4505 346.836 69.7734C346.159 69.0703 345.612 68.25 345.195 67.3125C344.805 66.375 344.609 65.3724 344.609 64.3047V38.0938C344.609 37.026 344.805 36.0234 345.195 35.0859C345.612 34.1484 346.159 33.3411 346.836 32.6641C347.539 31.9609 348.359 31.4141 349.297 31.0234C350.234 30.6068 351.224 30.3984 352.266 30.3984H372.93C373.997 30.3984 374.987 30.6068 375.898 31.0234C376.836 31.4141 377.643 31.9609 378.32 32.6641C379.023 33.3411 379.57 34.1484 379.961 35.0859C380.378 36.0234 380.586 37.026 380.586 38.0938V64.3047ZM352.266 38.0938V64.3047H372.93V38.0938H352.266ZM394.219 23.9922C394.219 22.8984 394.427 21.8698 394.844 20.9062C395.26 19.9167 395.833 19.0703 396.562 18.3672C397.292 17.638 398.138 17.0651 399.102 16.6484C400.091 16.2057 401.133 15.9844 402.227 15.9844H432.617C433.711 15.9844 434.74 16.2057 435.703 16.6484C436.693 17.0651 437.552 17.638 438.281 18.3672C439.01 19.0703 439.583 19.9167 440 20.9062C440.417 21.8698 440.625 22.8984 440.625 23.9922V31.2188H432.617V23.9922H402.227V63.9922H432.617V56.8047H440.625V63.9922C440.625 65.0859 440.417 66.1276 440 67.1172C439.583 68.0807 439.01 68.9271 438.281 69.6562C437.552 70.3854 436.693 70.9583 435.703 71.375C434.74 71.7917 433.711 72 432.617 72H402.227C401.133 72 400.091 71.7917 399.102 71.375C398.138 70.9583 397.292 70.3854 396.562 69.6562C395.833 68.9271 395.26 68.0807 394.844 67.1172C394.427 66.1276 394.219 65.0859 394.219 63.9922V23.9922ZM488.633 64.3047C488.633 65.3724 488.424 66.375 488.008 67.3125C487.617 68.25 487.07 69.0703 486.367 69.7734C485.69 70.4505 484.883 70.9974 483.945 71.4141C483.034 71.8047 482.044 72 480.977 72H460.312C459.271 72 458.281 71.8047 457.344 71.4141C456.406 70.9974 455.586 70.4505 454.883 69.7734C454.206 69.0703 453.659 68.25 453.242 67.3125C452.852 66.375 452.656 65.3724 452.656 64.3047V38.0938C452.656 37.026 452.852 36.0234 453.242 35.0859C453.659 34.1484 454.206 33.3411 454.883 32.6641C455.586 31.9609 456.406 31.4141 457.344 31.0234C458.281 30.6068 459.271 30.3984 460.312 30.3984H480.977C482.044 30.3984 483.034 30.6068 483.945 31.0234C484.883 31.4141 485.69 31.9609 486.367 32.6641C487.07 33.3411 487.617 34.1484 488.008 35.0859C488.424 36.0234 488.633 37.026 488.633 38.0938V64.3047ZM460.312 38.0938V64.3047H480.977V38.0938H460.312ZM501.484 38.0938C501.484 37.026 501.68 36.0234 502.07 35.0859C502.487 34.1484 503.034 33.3411 503.711 32.6641C504.414 31.9609 505.234 31.4141 506.172 31.0234C507.109 30.6068 508.099 30.3984 509.141 30.3984H530.586V14.3828H538.281V72H530.586V64.9688C530.508 65.9323 530.247 66.8438 529.805 67.7031C529.362 68.5625 528.789 69.3177 528.086 69.9688C527.409 70.5938 526.628 71.0885 525.742 71.4531C524.857 71.8177 523.919 72 522.93 72H509.141C508.099 72 507.109 71.8047 506.172 71.4141C505.234 70.9974 504.414 70.4505 503.711 69.7734C503.034 69.0703 502.487 68.25 502.07 67.3125C501.68 66.375 501.484 65.3724 501.484 64.3047V38.0938ZM509.141 64.3047H530.586V38.0938H509.141V64.3047ZM586.289 55.125H558.75V64.3047H586.289V72H558.75C557.708 72 556.719 71.8047 555.781 71.4141C554.844 70.9974 554.023 70.4505 553.32 69.7734C552.643 69.0703 552.096 68.25 551.68 67.3125C551.289 66.375 551.094 65.3724 551.094 64.3047V38.0938C551.094 37.026 551.289 36.0234 551.68 35.0859C552.096 34.1484 552.643 33.3411 553.32 32.6641C554.023 31.9609 554.844 31.4141 555.781 31.0234C556.719 30.6068 557.708 30.3984 558.75 30.3984H578.594C579.661 30.3984 580.664 30.6068 581.602 31.0234C582.539 31.4141 583.346 31.9609 584.023 32.6641C584.727 33.3411 585.273 34.1484 585.664 35.0859C586.081 36.0234 586.289 37.026 586.289 38.0938V55.125ZM558.75 38.0938V47.4297H578.594V38.0938H558.75Z" fill="white"/>
<g clip-path="url(#clip0_512_103)">
<g clip-path="url(#clip1_512_103)">
<path d="M67.1667 63.1667H63.25C62.2113 63.1667 61.2151 62.7541 60.4805 62.0195C59.746 61.285 59.3334 60.2888 59.3334 59.25V35.75C59.3334 34.7113 59.746 33.7151 60.4805 32.9805C61.2151 32.246 62.2113 31.8334 63.25 31.8334H67.1667" stroke="white" stroke-width="2.75" stroke-linecap="round" stroke-linejoin="round"/>
<path d="M35.8334 63.1667H39.75C40.7888 63.1667 41.785 62.7541 42.5195 62.0195C43.2541 61.285 43.6667 60.2888 43.6667 59.25V35.75C43.6667 34.7113 43.2541 33.7151 42.5195 32.9805C41.785 32.246 40.7888 31.8334 39.75 31.8334H35.8334" stroke="white" stroke-width="2.75" stroke-linecap="round" stroke-linejoin="round"/>
<path d="M51.5 39.6666V55.3333" stroke="white" stroke-width="2.75" stroke-linecap="round" stroke-linejoin="round"/>
</g>
</g>
<defs>
<clipPath id="clip0_512_103">
<rect width="60" height="60" fill="white" transform="translate(22 18)"/>
</clipPath>
<clipPath id="clip1_512_103">
<rect width="47" height="47" fill="white" transform="translate(28 24)"/>
</clipPath>
</defs>
</svg>
